Coordinates
version=1
nRows=29
nColumns=22
inDegrees=yes

Units are S.I. units (second, meters, Newtons, ...)
If the header above contains a line with 'inDegrees', this indicates whether rotational values are in degrees (yes) or radians (no).

endheader
time	pelvis_tilt	pelvis_list	pelvis_rotation	pelvis_tx	pelvis_ty	pelvis_tz	hip_flexion_r	hip_adduction_r	hip_rotation_r	knee_angle_r	ankle_angle_r	subtalar_angle_r	hip_flexion_l	hip_adduction_l	hip_rotation_l	knee_angle_l	ankle_angle_l	subtalar_angle_l	lumbar_extension	lumbar_bending	lumbar_rotation
      3.00000000	     -0.25005041	      3.80715880	     13.23080812	     -0.01692416	      1.07400865	      1.04232412	     20.67423023	     -6.38748502	      5.88097563	    -42.22319849	     12.05665404	     -0.12683142	     -1.64636589	     11.77568745	     -1.25591326	     -9.31635671	     12.03574483	     -7.49271972	     -6.94623487	     -6.61336946	     -9.49898692
      3.01000000	     -0.31415351	      3.67296203	     13.92262108	     -0.01005478	      1.07350830	      1.03897247	     21.30753676	     -6.28870966	      5.60194481	    -40.76983274	     12.04082331	     -0.17681977	     -2.12821883	     11.67919140	     -0.54981812	     -9.21795601	     12.32224024	     -7.47137009	     -6.86938631	     -6.46962585	     -9.78808252
      3.02000000	     -0.37721832	      3.53041704	     14.60109970	     -0.00316244	      1.07294408	      1.03566617	     21.88768930	     -6.17228062	      5.29011531	    -39.23185033	     11.98896533	     -0.17974310	     -2.58535230	     11.56188244	      0.13642024	     -9.15782175	     12.63272280	     -7.44985609	     -6.79360628	     -6.32265628	    -10.04379917
      3.03000000	     -0.43170994	      3.37905006	     15.26419911	      0.00375319	      1.07232418	      1.03241592	     22.40293058	     -6.03273159	      4.94881464	    -37.60815683	     11.89579427	     -0.11886313	     -3.01829899	     11.42119346	      0.80274671	     -9.14736261	     12.96649173	     -7.43294130	     -6.72900378	     -6.17247781	    -10.26191980
      3.04000000	     -0.45764061	      3.22480362	     15.91862048	      0.01072244	      1.07168287	      1.02918090	     22.82414887	     -5.87569437	      4.56662963	    -35.89746622	     11.75505922	      0.03958342	     -3.46209394	     11.25909983	      1.44753236	     -9.16486860	     13.32591381	     -7.42035465	     -6.69586090	     -6.01161932	    -10.45033222
      3.05000000	     -0.50981139	      3.03344296	     16.54313615	      0.01770888	      1.07092486	      1.02602900	     23.22603102	     -5.66381520	      4.18277009	    -34.10556587	     11.50399839	      0.25511528	     -3.80903879	     11.05697217	      2.01302777	     -9.27614048	     13.70575805	     -7.43025500	     -6.62363443	     -5.82739156	    -10.57366397
      3.06000000	     -0.51775570	      2.85008854	     17.15313924	      0.02475592	      1.07017269	      1.02290273	     23.51160306	     -5.42790277	      3.81477499	    -32.23386952	     11.18828566	      0.61730454	     -4.19084623	     10.84287177	      2.57091207	     -9.40436671	     14.11343023	     -7.44779223	     -6.60348305	     -5.63773025	    -10.70136080
      3.07000000	     -0.53159210	      2.63191774	     17.73277718	      0.03183642	      1.06933502	      1.01984250	     23.75513715	     -5.13099553	      3.48080874	    -30.29429539	     10.75722966	      1.02017432	     -4.50490117	     10.59003210	      3.06128849	     -9.61292493	     14.53554990	     -7.48077603	     -6.56554347	     -5.41930565	    -10.74981619
      3.08000000	     -0.50523848	      2.41222711	     18.28098573	      0.03899225	      1.06850114	      1.01683692	     23.89663516	     -4.78999895	      3.22262457	    -28.29745579	     10.24790268	      1.59336669	     -4.84881866	     10.31920315	      3.54114974	     -9.83217674	     14.95827699	     -7.51814841	     -6.56806717	     -5.19319893	    -10.74763936
      3.09000000	     -0.49126347	      2.16139364	     18.80895877	      0.04618400	      1.06757281	      1.01386465	     23.99739697	     -4.39345094	      3.07080650	    -26.24986559	      9.68577036	      2.16943543	     -5.12339830	     10.01870946	      3.95697727	    -10.12731423	     15.40185513	     -7.56599118	     -6.54476095	     -4.93731541	    -10.71666130
      3.10000000	     -0.46565358	      1.89533006	     19.31716464	      0.05345458	      1.06659890	      1.01092553	     24.02828347	     -3.95398348	      3.04525144	    -24.17071178	      9.13152576	      2.81133903	     -5.38218867	      9.69621369	      4.34116341	    -10.45988895	     15.85240942	     -7.61621288	     -6.52238317	     -4.66744805	    -10.64888207
      3.11000000	     -0.42886633	      1.61778931	     19.80732163	      0.06081665	      1.06558270	      1.00798456	     23.99060116	     -3.48310357	      3.16285113	    -22.08041228	      8.64516117	      3.51492046	     -5.63038258	      9.35752576	      4.70056087	    -10.82500199	     16.30279024	     -7.66430088	     -6.49943618	     -4.38247315	    -10.54956529
      3.12000000	     -0.38020231	      1.33504735	     20.28278109	      0.06829751	      1.06453532	      1.00502852	     23.88467148	     -2.99491247	      3.42591169	    -20.00604164	      8.27812148	      4.27818170	     -5.87905983	      9.00733215	      5.03767961	    -11.21163054	     16.74280791	     -7.70454776	     -6.47409834	     -4.09000162	    -10.42868768
      3.13000000	     -0.31905567	      1.05354650	     20.75307185	      0.07591579	      1.06346645	      1.00203108	     23.71306017	     -2.50620720	      3.82475947	    -17.98270243	      8.06332433	      5.08742292	     -6.13766149	      8.65023655	      5.36314872	    -11.61192635	     17.17226849	     -7.73190593	     -6.44636243	     -3.79677989	    -10.29792937
      3.14000000	     -0.24691825	      0.77851562	     21.21860799	      0.08368693	      1.06238614	      0.99897596	     23.48625614	     -2.03026359	      4.33558982	    -16.05244326	      7.99519456	      5.92303375	     -6.41099994	      8.29158651	      5.68112852	    -12.01975301	     17.57991104	     -7.74036622	     -6.41361979	     -3.50723185	    -10.16555008
      3.15000000	     -0.16627416	      0.50632943	     21.68738806	      0.09163628	      1.06129809	      0.99584175	     23.21762927	     -1.57234557	      4.91045597	    -14.25989989	      8.05076907	      6.72216965	     -6.69348917	      7.92516860	      5.96962344	    -12.43943615	     17.96544620	     -7.73040958	     -6.36591965	     -3.21699125	    -10.05642313
      3.16000000	     -0.07037968	      0.26313491	     22.15737558	      0.09974647	      1.06023558	      0.99262514	     22.91469259	     -1.15415574	      5.53102568	    -12.67167287	      8.17435546	      7.52121977	     -7.02031365	      7.57875910	      6.31761705	    -12.84105537	     18.31757364	     -7.68187805	     -6.32516732	     -2.95289011	     -9.94253802
      3.17000000	      0.02714826	      0.00218257	     22.64340959	      0.10803030	      1.05916838	      0.98931143	     22.61943489	     -0.73990666	      6.10591270	    -11.33325861	      8.30967491	      8.14906242	     -7.32843451	      7.20291554	      6.61835898	    -13.27576865	     18.63328228	     -7.61713398	     -6.25103329	     -2.66582211	     -9.87100401
      3.18000000	      0.12590663	     -0.22580747	     23.13672388	      0.11649112	      1.05813802	      0.98591223	     22.33063798	     -0.36861089	      6.62105161	    -10.29359498	      8.42996868	      8.65468164	     -7.66864701	      6.85204458	      6.96349446	    -13.68947861	     18.91220838	     -7.51287624	     -6.16617820	     -2.41739128	     -9.82822956
      3.19000000	      0.24144067	     -0.43466222	     23.64240533	      0.12508915	      1.05716626	      0.98242827	     22.06069062	     -0.01538443	      7.05151949	     -9.60658247	      8.49405895	      9.00602002	     -8.03300411	      6.50526982	      7.33432690	    -14.11233925	     19.15080324	     -7.35833483	     -6.08650960	     -2.18076956	     -9.81426210
      3.20000000	      0.33134127	     -0.65473325	     24.16376502	      0.13384271	      1.05620515	      0.97886437	     21.85761984	      0.33515359	      7.35327727	     -9.25863145	      8.44925718	      9.11266319	     -8.35316416	      6.14787855	      7.68638682	    -14.56643822	     19.33528025	     -7.20241667	     -5.94613798	     -1.94864599	     -9.82479786
      3.21000000	      0.41921122	     -0.87773204	     24.69556322	      0.14269478	      1.05530852	      0.97522281	     21.71146216	      0.68951095	      7.57696286	     -9.26887159	      8.23114841	      9.05719037	     -8.65706283	      5.78364098	      8.05641076	    -15.04617980	     19.47685859	     -7.03572872	     -5.78637948	     -1.70919040	     -9.86689263
      3.22000000	      0.53704743	     -1.10268419	     25.25483607	      0.15166409	      1.05454163	      0.97148564	     21.56992154	      1.05437212	      7.70395230	     -9.57611622	      7.89497058	      8.79246166	     -8.96368008	      5.39323796	      8.41311191	    -15.57294840	     19.55568179	     -6.77090452	     -5.63841569	     -1.45377631	     -9.94685209
      3.23000000	      0.64268466	     -1.33126381	     25.80725515	      0.16073711	      1.05387279	      0.96768562	     21.47921738	      1.42644256	      7.83814418	    -10.14594499	      7.39686335	      8.25249654	     -9.24781329	      5.00387325	      8.78870840	    -16.11255555	     19.56367038	     -6.39559853	     -5.45902528	     -1.19975359	    -10.01396948
      3.24000000	      0.73574711	     -1.59364722	     26.37916644	      0.16984541	      1.05330899	      0.96381132	     21.44470531	      1.81691338	      7.96040289	    -10.91244603	      6.73208348	      7.73539390	     -9.44774416	      4.58482470	      9.13502485	    -16.74271446	     19.50459816	     -6.08359018	     -5.24139048	     -0.91268563	    -10.12718333
      3.25000000	      0.83728282	     -1.86972502	     26.94948435	      0.17900348	      1.05292351	      0.95987062	     21.43299901	      2.22169886	      8.09078708	    -11.81826809	      5.97806827	      7.19209115	     -9.60623617	      4.15214769	      9.47215189	    -17.43778289	     19.34150097	     -5.71898437	     -5.01804068	     -0.60606560	    -10.23395041
      3.26000000	      0.95328945	     -2.15071189	     27.51739142	      0.18818927	      1.05275013	      0.95586832	     21.43055275	      2.63180695	      8.20948936	    -12.81370907	      5.23831340	      6.62744644	     -9.71300169	      3.71354158	      9.79317423	    -18.22915124	     19.06396381	     -5.24311909	     -4.80376438	     -0.28767857	    -10.31906288
      3.27000000	      1.10005741	     -2.44624396	     28.08503040	      0.19740692	      1.05281046	      0.95175866	     21.42228942	      3.05572274	      8.29549053	    -13.86340945	      4.59034614	      6.22102675	     -9.78212282	      3.25363471	     10.08900032	    -19.10742278	     18.69039223	     -4.74257003	     -4.60532226	      0.07157868	    -10.42623770
      3.28000000	      1.27498471	     -2.73733827	     28.64878956	      0.20666332	      1.05311087	      0.94755373	     21.39242454	      3.47357963	      8.33194804	    -14.93200200	      4.08951461	      5.92187129	     -9.81160894	      2.79072592	     10.35731650	    -20.08381898	     18.19524022	     -4.16672686	     -4.43015813	      0.44675985	    -10.55529165
